HIERARCHY
ROOT SpineBase
{
  OFFSET 0.000000 0.000000 0.000000
  CHANNELS 6 Xposition Yposition Zposition Zrotation Xrotation Yrotation
  JOINT SpineMid
  {
    OFFSET 0.000000 32.149835 0.000000
    CHANNELS 3 Zrotation Xrotation Yrotation
    JOINT SpineShoulder
    {
      OFFSET 0.109196 23.994126 -0.541181
      CHANNELS 3 Zrotation Xrotation Yrotation
      JOINT Neck
      {
        OFFSET 0.140282 7.966690 -0.510492
        CHANNELS 3 Zrotation Xrotation Yrotation
        JOINT Head
        {
          OFFSET 4.469378 9.848180 5.278126
          CHANNELS 3 Zrotation Xrotation Yrotation
          End Site
          {
            OFFSET 0 0 0
          }
        }
      }
      JOINT ShoulderLeft
      {
        OFFSET -1.188086 -3.362761 -15.338803
        CHANNELS 3 Zrotation Xrotation Yrotation
        JOINT ElbowLeft
        {
          OFFSET -2.135113 -23.997008 -7.394331
          CHANNELS 3 Zrotation Xrotation Yrotation
          JOINT WristLeft
          {
            OFFSET 4.654335 -26.946728 -0.768744
            CHANNELS 3 Zrotation Xrotation Yrotation
            JOINT HandLeft
            {
              OFFSET 0.265615 -5.975355 0.807205
              CHANNELS 3 Zrotation Xrotation Yrotation
              JOINT HandTipLeft
              {
                OFFSET -0.178347 -4.045223 2.119668
                CHANNELS 3 Zrotation Xrotation Yrotation
                End Site
                {
                  OFFSET 0 0 0
                }
              }
              JOINT ThumbLeft
              {
                OFFSET -1.662816 0.808389 -2.874967
                CHANNELS 3 Zrotation Xrotation Yrotation
                End Site
                {
                  OFFSET 0 0 0
                }
              }
            }
          }
        }
      }
      JOINT ShoulderRight
      {
        OFFSET 1.491292 -6.298444 18.646416
        CHANNELS 3 Zrotation Xrotation Yrotation
        JOINT ElbowRight
        {
          OFFSET 1.093400 -27.570390 -2.292686
          CHANNELS 3 Zrotation Xrotation Yrotation
          JOINT WristRight
          {
            OFFSET -0.044784 -16.812708 -12.479111
            CHANNELS 3 Zrotation Xrotation Yrotation
            JOINT HandRight
            {
              OFFSET 4.885401 -4.655535 -3.035327
              CHANNELS 3 Zrotation Xrotation Yrotation
              JOINT HandTipRight
              {
                OFFSET -1.011191 -2.926418 -1.597113
                CHANNELS 3 Zrotation Xrotation Yrotation
                End Site
                {
                  OFFSET 0 0 0
                }
              }
              JOINT ThumbRight
              {
                OFFSET 0.792016 -0.043063 -0.697388
                CHANNELS 3 Zrotation Xrotation Yrotation
                End Site
                {
                  OFFSET 0 0 0
                }
              }
            }
          }
        }
      }
    }
  }
  JOINT HipLeft
  {
    OFFSET 0.479024 2.164697 -10.022751
    CHANNELS 3 Zrotation Xrotation Yrotation
    JOINT KneeLeft
    {
      OFFSET -9.642456 -38.470468 -3.673951
      CHANNELS 3 Zrotation Xrotation Yrotation
      JOINT AnkleLeft
      {
        OFFSET -9.552004 -28.208640 -0.362722
        CHANNELS 3 Zrotation Xrotation Yrotation
        JOINT FootLeft
        {
          OFFSET 2.854569 -7.784075 2.607175
          CHANNELS 3 Zrotation Xrotation Yrotation
          End Site
          {
            OFFSET 0 0 0
          }
        }
      }
    }
  }
  JOINT HipRight
  {
    OFFSET 1.817970 -0.087661 3.270314
    CHANNELS 3 Zrotation Xrotation Yrotation
    JOINT KneeRight
    {
      OFFSET -2.783840 -35.051615 1.485533
      CHANNELS 3 Zrotation Xrotation Yrotation
      JOINT AnkleRight
      {
        OFFSET -13.839612 -32.560905 -0.701907
        CHANNELS 3 Zrotation Xrotation Yrotation
        JOINT FootRight
        {
          OFFSET 2.037272 -6.661890 -1.893863
          CHANNELS 3 Zrotation Xrotation Yrotation
          End Site
          {
            OFFSET 0 0 0
          }
        }
      }
    }
  }
}
MOTION
Frames: 8
Frame Time: 0.033333
-115.507356 75.229652 329.558881 -0.000000 0.000000 -84.248275 0.000000 0.000000 84.248275 -0.000000 0.000000 0.000000 -0.000000 0.000000 0.000000 0.000000 0.000000 0.000000 -0.000000 0.000000 0.000000 -0.000000 0.000000 0.000000 -0.000000 0.000000 0.000000 -0.000000 0.000000 0.000000 0.000000 0.000000 0.000000 0.000000 0.000000 0.000000 -0.000000 0.000000 0.000000 -0.000000 0.000000 0.000000 -0.000000 0.000000 0.000000 -0.000000 0.000000 0.000000 0.000000 0.000000 0.000000 0.000000 0.000000 0.000000 0.000000 0.000000 84.248275 -0.000000 0.000000 0.000000 -0.000000 0.000000 0.000000 0.000000 0.000000 0.000000 0.000000 0.000000 84.248275 -0.000000 0.000000 0.000000 -0.000000 0.000000 0.000000 0.000000 0.000000 0.000000
-115.522555 75.268405 329.505124 0.019678 0.052946 -84.224394 0.050697 -0.024906 84.224396 -0.000000 0.000000 0.000000 -0.000000 0.000000 0.000000 0.000000 0.000000 0.000000 -0.000000 0.000000 0.000000 -0.000000 0.000000 0.000000 -0.000000 0.000000 0.000000 5.032757 5.452110 2.217846 0.000000 0.000000 0.000000 0.000000 0.000000 0.000000 -0.000000 0.000000 0.000000 -0.000000 0.000000 0.000000 -1.419848 -2.745862 -2.048698 2.248461 2.832363 1.428038 0.000000 0.000000 0.000000 0.000000 0.000000 0.000000 0.050697 -0.024906 84.224396 -0.000000 0.000000 0.000000 -0.000000 0.000000 0.000000 0.000000 0.000000 0.000000 0.050697 -0.024906 84.224396 -0.000000 0.000000 0.000000 -0.422064 2.651141 0.935521 0.000000 0.000000 0.000000
-115.537625 75.302503 329.459340 0.036817 0.099014 -84.192113 0.094780 -0.046648 84.192120 -0.000000 0.000000 0.000000 -0.000000 0.000000 0.000000 0.000000 0.000000 0.000000 -0.000000 0.000000 0.000000 -0.000000 0.000000 0.000000 -0.000000 0.000000 0.000000 9.840680 10.880262 3.959671 0.000000 0.000000 0.000000 0.000000 0.000000 0.000000 -0.000000 0.000000 0.000000 -0.000000 0.000000 0.000000 -2.152290 -4.370772 -3.419017 3.973360 5.897682 1.456158 0.000000 0.000000 0.000000 0.000000 0.000000 0.000000 0.094780 -0.046648 84.192120 -0.000000 0.000000 0.000000 -0.000000 0.000000 0.000000 0.000000 0.000000 0.000000 0.857345 -0.416581 84.246075 -0.674660 1.423828 -0.279060 0.191379 3.601360 1.766919 0.000000 0.000000 0.000000
-115.552567 75.331945 329.421530 0.051409 0.138179 -84.151528 0.132221 -0.065221 84.151542 -0.000000 0.000000 0.000000 -0.000000 0.000000 0.000000 0.000000 0.000000 0.000000 -0.000000 0.000000 0.000000 -0.000000 0.000000 0.000000 -0.000000 0.000000 0.000000 14.111725 15.742815 5.172358 0.000000 0.000000 0.000000 0.000000 0.000000 0.000000 -0.000000 0.000000 0.000000 -0.000000 0.000000 0.000000 -2.040470 -4.789015 -3.963879 4.999702 9.312376 0.053470 0.000000 0.000000 0.000000 0.000000 0.000000 0.000000 0.132221 -0.065221 84.151542 -0.000000 0.000000 0.000000 -0.000000 0.000000 0.000000 0.000000 0.000000 0.000000 1.218888 -0.544637 84.231489 -0.977058 2.104819 -0.422886 0.337860 3.761688 2.130768 0.000000 0.000000 0.000000
-115.567380 75.356731 329.391693 0.063444 0.170420 -84.102775 0.162999 -0.080618 84.102796 -0.000000 0.000000 0.000000 0.775532 -0.502485 -0.185212 0.000000 0.000000 0.000000 -0.000000 0.000000 0.000000 -0.000000 0.000000 0.000000 -0.000000 0.000000 0.000000 17.586143 19.587612 5.928044 0.000000 0.000000 0.000000 0.000000 0.000000 0.000000 -0.000000 0.000000 0.000000 -0.000000 0.000000 0.000000 -0.995913 -3.915157 -3.606892 5.122019 12.473506 -2.426057 0.000000 0.000000 0.000000 0.000000 0.000000 0.000000 0.162999 -0.080618 84.102796 0.822928 -0.505743 0.164716 -0.556126 1.372887 0.244381 0.000000 0.000000 0.000000 1.548752 -0.627859 84.208188 -1.230329 2.770893 -0.570725 0.531525 2.831884 2.130250 0.000000 0.000000 0.000000
-115.582064 75.376862 329.369830 0.072918 0.195720 -84.046030 0.187101 -0.092827 84.046057 -0.000000 0.000000 0.000000 1.025810 -0.652338 -0.249680 0.000000 0.000000 0.000000 -0.000000 0.000000 0.000000 -0.000000 0.000000 0.000000 -0.000000 0.000000 0.000000 20.081257 22.138749 6.370709 0.000000 0.000000 0.000000 0.000000 0.000000 0.000000 -0.000000 0.000000 0.000000 -0.000000 0.000000 0.000000 0.980616 -1.651670 -2.359218 4.197355 14.168749 -5.416433 0.000000 0.000000 0.000000 0.000000 0.000000 0.000000 0.187101 -0.092827 84.046057 0.959501 -0.641814 0.210983 -0.482345 1.786017 0.367383 0.000000 0.000000 0.000000 1.854365 -0.669802 84.176507 -1.420919 3.422110 -0.722908 0.762608 0.796626 1.755688 0.000000 0.000000 0.000000
-115.593406 75.405488 329.344315 0.077067 0.227659 -83.963512 0.218292 -0.100580 83.963550 -0.000000 0.000000 0.000000 1.425271 -0.887201 -0.353695 0.000000 0.000000 0.000000 0.718804 -0.474171 -0.176652 -0.720286 0.471915 0.182593 1.164087 0.626404 0.178793 19.856087 21.716329 6.733094 0.000000 0.000000 0.000000 0.000000 0.000000 0.000000 -0.000000 0.000000 0.000000 -0.000000 0.000000 0.000000 8.711626 10.264783 3.798155 1.064023 13.160753 -17.552850 0.000000 0.000000 0.000000 0.000000 0.000000 0.000000 0.218292 -0.100580 83.963550 1.116380 -0.845442 0.281124 -0.131466 2.314775 0.573991 0.000000 0.000000 0.000000 2.162451 -0.679361 84.119299 -1.627767 4.127051 -0.897733 1.516613 -2.961597 0.760219 0.000000 0.000000 0.000000
-115.604032 75.417106 329.341312 0.080801 0.235347 -83.884470 0.225400 -0.105414 83.884512 -0.000000 0.000000 0.000000 1.715753 -1.041330 -0.436525 0.000000 0.000000 0.000000 0.778459 -0.438400 -0.198243 -0.779994 0.435663 0.204187 1.358327 1.235670 0.223993 18.050681 21.329515 6.229982 0.000000 0.000000 0.000000 0.000000 0.000000 0.000000 -0.000000 0.000000 0.000000 -0.000000 0.000000 0.000000 13.858562 18.070213 6.350546 -8.122926 -0.317383 -17.882878 0.000000 0.000000 0.000000 0.000000 0.000000 0.000000 0.225400 -0.105414 83.884512 1.232619 -1.007389 0.337383 0.143056 2.836054 0.765466 0.000000 0.000000 0.000000 2.454743 -0.643809 84.066902 -1.726748 4.843175 -1.086453 1.833134 -6.494657 -0.067500 0.000000 0.000000 0.000000
